<?xml version="1.0" standalone="no"?>
<!DOCTYPE svg PUBLIC "-//W3C//DTD SVG 20010904//EN"
 "http://www.w3.org/TR/2001/REC-SVG-20010904/DTD/svg10.dtd">
<svg version="1.0" xmlns="http://www.w3.org/2000/svg"
 width="880.000000pt" height="600.000000pt" viewBox="0 0 880.000000 600.000000"
 preserveAspectRatio="xMidYMid meet">

<g transform="translate(0.000000,600.000000) scale(0.100000,-0.100000)"
fill="#000000" stroke="none">
<path d="M1495 5581 c-24 -10 -79 -59 -137 -120 -496 -522 -827 -1214 -922
-1931 -48 -355 -46 -627 5 -985 101 -711 441 -1407 929 -1906 121 -124 157
-142 236 -121 59 16 86 35 119 82 32 47 42 113 25 165 -7 23 -48 75 -107 137
-453 479 -728 1054 -830 1733 -25 172 -25 668 0 840 102 680 373 1245 829
1732 59 62 101 116 108 139 29 88 -14 184 -103 229 -60 30 -97 31 -152 6z"/>
<path d="M7171 5587 c-69 -22 -131 -108 -131 -182 0 -59 23 -96 125 -205 480
-514 765 -1146 835 -1849 5 -57 10 -190 10 -296 0 -106 -5 -239 -10 -296 -70
-706 -350 -1326 -839 -1852 -58 -64 -105 -123 -112 -144 -28 -87 16 -184 104
-228 100 -50 154 -29 291 116 480 504 802 1164 910 1859 57 367 57 726 1 1087
-110 703 -430 1356 -914 1865 -125 132 -176 155 -270 125z"/>
<path d="M2074 4990 c-72 -36 -272 -271 -406 -475 -579 -884 -577 -2044 6
-2930 133 -202 331 -431 403 -466 93 -45 203 -3 249 94 45 98 32 136 -105 288
-381 423 -582 920 -598 1480 -9 289 24 528 109 788 102 318 255 577 501 854
130 146 143 196 78 299 -51 81 -152 110 -237 68z"/>
<path d="M6562 4989 c-53 -26 -87 -70 -103 -131 -19 -70 -2 -114 83 -206 255
-279 416 -547 526 -880 152 -457 149 -1000 -8 -1456 -116 -337 -271 -591 -532
-872 -69 -76 -87 -125 -70 -191 34 -124 158 -186 268 -132 72 34 270 266 406
474 385 588 523 1327 376 2015 -102 478 -318 894 -665 1277 -110 121 -186 149
-281 102z"/>
<path d="M2665 4404 c-41 -21 -56 -35 -143 -134 -239 -273 -397 -626 -442
-993 -20 -155 -8 -443 24 -593 66 -314 213 -610 420 -846 104 -119 135 -141
204 -146 98 -6 176 52 203 151 18 67 -2 115 -88 210 -260 286 -393 625 -393
1002 0 384 141 734 411 1022 88 94 98 163 39 256 -48 76 -161 110 -235 71z"/>
<path d="M5956 4390 c-35 -23 -53 -44 -71 -83 -43 -91 -29 -138 73 -250 191
-211 308 -441 369 -727 28 -134 26 -431 -5 -568 -65 -288 -186 -519 -383 -729
-84 -91 -96 -144 -53 -232 46 -92 149 -135 239 -101 95 36 320 331 429 562
123 260 176 500 176 793 0 302 -63 572 -195 835 -107 212 -324 487 -410 520
-52 20 -118 12 -169 -20z"/>
<path d="M5419 3827 c-79 -29 -122 -77 -140 -157 -13 -55 6 -101 77 -186 219
-264 219 -594 -2 -860 -35 -42 -68 -93 -74 -113 -19 -72 23 -165 93 -205 92
-52 151 -42 238 41 101 96 186 233 235 379 120 359 34 759 -220 1024 -75 78
-138 102 -207 77z"/>
<path d="M3261 3815 c-118 -53 -241 -223 -307 -422 -120 -368 -35 -767 223
-1036 25 -26 60 -55 76 -64 59 -30 153 -14 211 36 53 46 75 157 43 217 -9 16
-41 58 -72 94 -208 241 -205 588 6 839 67 80 79 104 79 167 0 57 -29 115 -76
150 -44 34 -130 43 -183 19z"/>
<path d="M4323 3460 c-115 -23 -234 -118 -286 -227 -117 -251 36 -540 310
-586 243 -40 473 159 473 408 0 260 -240 455 -497 405z"/>
</g>
</svg>
